<!-- Generator: Adobe Illustrator 17.0.0, SVG Export Plug-In  -->
<svg version="1.1"
     xmlns="http://www.w3.org/2000/svg" xmlns:xlink="http://www.w3.org/1999/xlink" xmlns:a="http://ns.adobe.com/AdobeSVGViewerExtensions/3.0/"
     x="0px" y="0px" width="392.465px" height="120.746px" viewBox="0 0 392.465 120.746" enable-background="new 0 0 392.465 120.746"
     xml:space="preserve">
<defs>
</defs>
<g>
    <path fill="#fddcce" d="M48.817,85.753c0.432,0.216,0.648,0.648,0.648,1.08c0,4.32-30.24,33.697-41.256,33.697
        c-1.728,0-3.024-0.648-4.536-2.16C2.592,117.29,0,112.97,0,109.514c0-12.312,13.824-24.408,29.809-47.521
        c4.968,1.944,4.968,5.4,4.968,8.208c0,8.208-25.92,33.696-27,46.873C18.145,117.074,40.825,95.905,48.817,85.753z M55.945,39.96
        c0,3.888-4.104,8.424-7.776,8.424c-2.592,0-4.104-1.728-4.104-4.536c0-3.672,4.104-8.424,7.56-8.424
        C54.217,35.424,55.945,37.152,55.945,39.96z"/>
    <path fill="#fddcce" d="M119.448,85.753c0.432,0.216,0.648,0.648,0.648,1.08c0,4.32-30.24,33.697-41.256,33.697
        c-1.512,0-3.24-0.648-4.752-2.16c-2.376-2.376-3.24-5.4-3.24-8.64c0-13.608,34.776-40.393,31.32-46.44c0,0-1.512-0.432-2.376-0.432
        c-5.616,0-17.928,9.504-32.617,24.84c-9.72,10.152-19.656,22.032-28.296,33.048c-3.672,0-5.832-4.104-5.832-8.64
        c0-6.696,27.433-37.368,31.537-49.896c4.968,1.944,5.184,5.4,5.184,8.208c0,4.104-5.4,12.744-12.096,22.032l0.216,0.864
        c2.376-2.592,4.968-5.4,7.776-8.208c14.904-15.553,26.352-24.841,33.913-24.841c3.888,0,7.776,3.024,7.776,8.64
        c0,14.472-29.161,39.961-28.944,48.169C88.776,117.074,111.456,95.905,119.448,85.753z"/>
    <path fill="#fddcce" d="M145.799,118.37c-1.944-1.944-3.024-4.752-3.024-7.344c0-3.24,0.864-6.48,3.024-10.584l-0.864,0.864
        c-9.936,9.936-23.329,19.224-27.864,19.224c-5.4,0-9.072-4.752-9.072-11.88c0-16.632,31.752-47.953,49.465-48.385
        c7.344,2.808,9.288,6.048,9.288,8.64c0,0.648,0,1.296-0.216,1.944C185.544,46.009,216,7.56,216,0
        c4.752,1.728,6.264,5.616,6.264,8.208c0,9.72-40.825,58.321-53.785,76.465c-15.12,20.952-18.792,27.216-17.928,32.4
        c10.368,0,33.048-21.168,41.041-31.32c0.432,0.216,0.648,0.648,0.648,1.08c0,4.32-30.24,33.697-41.256,33.697
        C149.039,120.53,147.311,119.882,145.799,118.37z M142.775,98.93c4.536-4.536,8.856-8.641,12.96-13.608l0.432-0.648
        c0.864-1.08,1.729-2.16,2.592-3.456c2.808-3.888,4.752-8.208,4.752-12.312c0-1.728-0.216-2.376-0.864-3.456
        c-10.8,1.728-47.089,35.208-48.601,49.897c0.432,1.08,1.296,1.512,2.592,1.512C120.743,116.858,133.271,108.434,142.775,98.93z"/>
    <path fill="#fddcce" d="M192.238,120.53c-7.128,0-11.016-3.24-11.016-12.744c0-17.928,27.216-47.521,45.577-47.953
        c6.048,2.16,8.641,3.888,8.641,8.424c0,3.672-3.672,7.992-7.561,11.88c-6.912,6.912-17.928,12.312-25.272,12.312
        c-1.512,0-2.592,0-3.456-0.216c-6.264,8.424-11.016,17.064-11.448,23.328c0.432,0.648,1.512,1.296,4.104,1.296
        c9.72,0,28.513-9.937,40.825-22.249c3.456-3.456,6.265-6.48,8.208-9.072c0.433,0.216,0.648,0.648,0.648,1.08
        c0,1.512-3.888,6.264-9.72,12.096C219.67,110.81,200.662,120.53,192.238,120.53z M225.07,78.625
        c4.32-4.32,7.128-8.208,7.128-10.368c0-1.944-0.216-2.808-0.648-3.24c-7.344,0.648-20.52,12.096-30.457,24.84h1.728
        C208.438,89.857,219.022,84.673,225.07,78.625z"/>
    <path fill="#fddcce" d="M241.267,120.53c-7.128,0-11.017-3.24-11.017-12.744c0-17.928,27.217-47.521,45.577-47.953
        c6.048,2.16,8.64,3.888,8.64,8.424c0,3.672-3.672,7.992-7.56,11.88c-6.912,6.912-17.929,12.312-25.272,12.312
        c-1.513,0-2.593,0-3.456-0.216c-6.265,8.424-11.017,17.064-11.448,23.328c0.432,0.648,1.512,1.296,4.104,1.296
        c9.721,0,28.513-9.937,40.825-22.249c3.456-3.456,6.264-6.48,8.208-9.072c0.432,0.216,0.647,0.648,0.647,1.08
        c0,1.512-3.888,6.264-9.72,12.096C268.7,110.81,249.691,120.53,241.267,120.53z M274.099,78.625
        c4.32-4.32,7.128-8.208,7.128-10.368c0-1.944-0.216-2.808-0.647-3.24c-7.345,0.648-20.521,12.096-30.457,24.84h1.729
        C257.467,89.857,268.051,84.673,274.099,78.625z"/>
    <path fill="#fddcce" d="M316,118.37c-1.944-1.944-3.024-4.752-3.024-7.344c0-3.24,0.864-6.48,3.024-10.584l-0.864,0.864
        c-9.936,9.936-23.328,19.224-27.864,19.224c-5.4,0-9.072-4.752-9.072-11.88c0-16.632,31.753-47.953,49.465-48.385
        c7.345,2.808,9.288,6.048,9.288,8.64c0,0.648,0,1.296-0.216,1.944C355.745,46.009,386.201,7.56,386.201,0
        c4.752,1.728,6.265,5.616,6.265,8.208c0,9.72-40.825,58.321-53.785,76.465c-15.12,20.952-18.792,27.216-17.929,32.4
        c10.368,0,33.049-21.168,41.041-31.32c0.432,0.216,0.648,0.648,0.648,1.08c0,4.32-30.241,33.697-41.257,33.697
        C319.24,120.53,317.511,119.882,316,118.37z M312.975,98.93c4.536-4.536,8.856-8.641,12.961-13.608l0.432-0.648
        c0.864-1.08,1.729-2.16,2.593-3.456c2.808-3.888,4.752-8.208,4.752-12.312c0-1.728-0.217-2.376-0.864-3.456
        c-10.8,1.728-47.089,35.208-48.602,49.897c0.433,1.08,1.297,1.512,2.593,1.512C290.943,116.858,303.471,108.434,312.975,98.93z"/>
</g>
</svg>
